BodoniModa-6ptBlackItalic.ufo
<glyph name="percent" format="2">
  <advance width="2000"/>
  <unicode hex="0025"/>
  <outline>
    <contour>
      <point x="387" y="0" type="line"/>
      <point x="484" y="0" type="line"/>
      <point x="1790" y="1500" type="line"/>
      <point x="1691" y="1500" type="line"/>
    </contour>
    <contour>
      <point x="550" y="641" type="curve" smooth="yes"/>
      <point x="857" y="641"/>
      <point x="1130" y="895"/>
      <point x="1130" y="1221" type="curve" smooth="yes"/>
      <point x="1130" y="1427"/>
      <point x="957" y="1520"/>
      <point x="730" y="1520" type="curve" smooth="yes"/>
      <point x="423" y="1520"/>
      <point x="150" y="1265"/>
      <point x="150" y="939" type="curve" smooth="yes"/>
      <point x="150" y="733"/>
      <point x="323" y="641"/>
    </contour>
    <contour>
      <point x="535" y="713" type="curve" smooth="yes"/>
      <point x="508" y="713"/>
      <point x="495" y="759"/>
      <point x="495" y="803" type="curve" smooth="yes"/>
      <point x="495" y="967"/>
      <point x="657" y="1447"/>
      <point x="745" y="1447" type="curve" smooth="yes"/>
      <point x="772" y="1447"/>
      <point x="775" y="1411"/>
      <point x="775" y="1367" type="curve" smooth="yes"/>
      <point x="775" y="1203"/>
      <point x="623" y="713"/>
    </contour>
    <contour>
      <point x="1460" y="-20" type="curve" smooth="yes"/>
      <point x="1767" y="-20"/>
      <point x="2040" y="235"/>
      <point x="2040" y="561" type="curve" smooth="yes"/>
      <point x="2040" y="767"/>
      <point x="1868" y="859"/>
      <point x="1641" y="859" type="curve" smooth="yes"/>
      <point x="1334" y="859"/>
      <point x="1061" y="605"/>
      <point x="1061" y="279" type="curve" smooth="yes"/>
      <point x="1061" y="73"/>
      <point x="1233" y="-20"/>
    </contour>
    <contour>
      <point x="1445" y="53" type="curve" smooth="yes"/>
      <point x="1418" y="53"/>
      <point x="1404" y="99"/>
      <point x="1404" y="143" type="curve" smooth="yes"/>
      <point x="1404" y="307"/>
      <point x="1567" y="787"/>
      <point x="1655" y="787" type="curve" smooth="yes"/>
      <point x="1682" y="787"/>
      <point x="1686" y="751"/>
      <point x="1686" y="707" type="curve" smooth="yes"/>
      <point x="1686" y="543"/>
      <point x="1533" y="53"/>
    </contour>
  </outline>
</glyph>
<glyph name="parenright" format="2">
  <advance width="769"/>
  <unicode hex="0029"/>
  <outline>
    <contour>
      <point x="-182" y="-340" type="line"/>
      <point x="205" y="-180"/>
      <point x="660" y="304"/>
      <point x="660" y="890" type="curve" smooth="yes"/>
      <point x="660" y="1236"/>
      <point x="485" y="1500"/>
      <point x="258" y="1600" type="curve"/>
      <point x="223" y="1537" type="line"/>
      <point x="255" y="1476"/>
      <point x="303" y="1376"/>
      <point x="303" y="1231" type="curve" smooth="yes"/>
      <point x="303" y="788"/>
      <point x="90" y="-29"/>
      <point x="-219" y="-269" type="curve"/>
    </contour>
  </outline>
</glyph>
<glyph name="asterisk" format="2">
  <advance width="1269"/>
  <unicode hex="002A"/>
  <outline>
    <contour>
      <point x="785" y="867" type="line"/>
      <point x="974" y="976"/>
      <point x="1120" y="905"/>
      <point x="1268" y="934" type="curve" smooth="yes"/>
      <point x="1424" y="966"/>
      <point x="1492" y="1151"/>
      <point x="1422" y="1258" type="curve" smooth="yes"/>
      <point x="1360" y="1356"/>
      <point x="1225" y="1386"/>
      <point x="1109" y="1290" type="curve" smooth="yes"/>
      <point x="983" y="1186"/>
      <point x="935" y="1040"/>
      <point x="746" y="931" type="curve"/>
    </contour>
    <contour>
      <point x="420" y="510" type="curve" smooth="yes"/>
      <point x="546" y="614"/>
      <point x="594" y="760"/>
      <point x="783" y="869" type="curve"/>
      <point x="744" y="933" type="line"/>
      <point x="555" y="824"/>
      <point x="410" y="895"/>
      <point x="262" y="866" type="curve" smooth="yes"/>
      <point x="106" y="834"/>
      <point x="37" y="649"/>
      <point x="107" y="542" type="curve" smooth="yes"/>
      <point x="169" y="444"/>
      <point x="304" y="414"/>
    </contour>
    <contour>
      <point x="646" y="216" type="curve" smooth="yes"/>
      <point x="776" y="216"/>
      <point x="898" y="321"/>
      <point x="898" y="434" type="curve" smooth="yes"/>
      <point x="898" y="584"/>
      <point x="761" y="640"/>
      <point x="801" y="900" type="curve"/>
      <point x="731" y="900" type="line"/>
      <point x="702" y="679"/>
      <point x="489" y="608"/>
      <point x="462" y="454" type="curve" smooth="yes"/>
      <point x="430" y="284"/>
      <point x="537" y="216"/>
    </contour>
    <contour>
      <point x="746" y="869" type="curve"/>
      <point x="785" y="929" type="line"/>
      <point x="615" y="1019"/>
      <point x="698" y="1209"/>
      <point x="566" y="1305" type="curve" smooth="yes"/>
      <point x="450" y="1389"/>
      <point x="284" y="1341"/>
      <point x="216" y="1234" type="curve" smooth="yes"/>
      <point x="154" y="1132"/>
      <point x="157" y="989"/>
      <point x="275" y="934" type="curve" smooth="yes"/>
      <point x="414" y="872"/>
      <point x="557" y="978"/>
    </contour>
    <contour>
      <point x="964" y="496" type="curve" smooth="yes"/>
      <point x="1080" y="412"/>
      <point x="1246" y="459"/>
      <point x="1314" y="566" type="curve" smooth="yes"/>
      <point x="1376" y="668"/>
      <point x="1372" y="811"/>
      <point x="1254" y="866" type="curve" smooth="yes"/>
      <point x="1115" y="928"/>
      <point x="972" y="822"/>
      <point x="783" y="931" type="curve"/>
      <point x="744" y="871" type="line"/>
      <point x="914" y="781"/>
      <point x="832" y="592"/>
    </contour>
    <contour>
      <point x="729" y="900" type="curve"/>
      <point x="799" y="900" type="line"/>
      <point x="828" y="1121"/>
      <point x="1041" y="1192"/>
      <point x="1068" y="1346" type="curve" smooth="yes"/>
      <point x="1100" y="1516"/>
      <point x="993" y="1584"/>
      <point x="884" y="1584" type="curve" smooth="yes"/>
      <point x="754" y="1584"/>
      <point x="632" y="1479"/>
      <point x="632" y="1366" type="curve" smooth="yes"/>
      <point x="632" y="1216"/>
      <point x="769" y="1160"/>
    </contour>
  </outline>
</glyph>
<glyph name="C" format="2">
  <advance width="1455"/>
  <unicode hex="0043"/>
  <anchor x="686" y="0" name="_top"/>
  <anchor x="686" y="0" name="bottom"/>
  <anchor x="686" y="0" name="ogonek"/>
  <anchor x="1006" y="1501" name="top"/>
  <outline>
    <contour>
      <point x="710" y="-20" type="curve" smooth="yes"/>
      <point x="996" y="-20"/>
      <point x="1210" y="225"/>
      <point x="1370" y="471" type="curve"/>
      <point x="1330" y="471" type="line"/>
      <point x="1150" y="267"/>
      <point x="974" y="69"/>
      <point x="766" y="69" type="curve" smooth="yes"/>
      <point x="558" y="69"/>
      <point x="540" y="166"/>
      <point x="540" y="350" type="curve" smooth="yes"/>
      <point x="540" y="713"/>
      <point x="722" y="1427"/>
      <point x="1090" y="1427" type="curve" smooth="yes"/>
      <point x="1218" y="1427"/>
      <point x="1357" y="1334"/>
      <point x="1439" y="1029" type="curve"/>
      <point x="1480" y="1029" type="line"/>
      <point x="1453" y="1315"/>
      <point x="1285" y="1520"/>
      <point x="1010" y="1520" type="curve" smooth="yes"/>
      <point x="504" y="1520"/>
      <point x="100" y="1056"/>
      <point x="100" y="510" type="curve" smooth="yes"/>
      <point x="100" y="184"/>
      <point x="344" y="-20"/>
    </contour>
    <contour>
      <point x="1230" y="0" type="line"/>
      <point x="1293" y="0" type="line"/>
      <point x="1403" y="471" type="line"/>
      <point x="1330" y="471" type="line"/>
      <point x="1221" y="286" type="line"/>
      <point x="1165" y="221"/>
      <point x="1108" y="177"/>
      <point x="1050" y="141" type="curve"/>
    </contour>
    <contour>
      <point x="1439" y="1029" type="line"/>
      <point x="1514" y="1029" type="line"/>
      <point x="1619" y="1500" type="line"/>
      <point x="1557" y="1500" type="line"/>
      <point x="1311" y="1350" type="line"/>
      <point x="1352" y="1311"/>
      <point x="1388" y="1268"/>
      <point x="1414" y="1214" type="curve"/>
    </contour>
  </outline>
</glyph>
<glyph name="L" format="2">
  <advance width="1336"/>
  <unicode hex="004C"/>
  <anchor x="516" y="0" name="bottom"/>
  <anchor x="516" y="0" name="cedilla"/>
  <anchor x="614" y="1500" name="top"/>
  <anchor x="945" y="920" name="topright"/>
  <outline>
    <contour>
      <point x="70" y="0" type="line"/>
      <point x="500" y="0" type="line"/>
      <point x="848" y="1500" type="line"/>
      <point x="418" y="1500" type="line"/>
    </contour>
    <contour>
      <point x="-100" y="0" type="line"/>
      <point x="1174" y="0" type="line"/>
      <point x="1277" y="450" type="line"/>
      <point x="1204" y="450" type="line"/>
      <point x="1086" y="196"/>
      <point x="904" y="73"/>
      <point x="590" y="73" type="curve" smooth="yes"/>
      <point x="-100" y="73" type="line"/>
    </contour>
    <contour>
      <point x="238" y="1427" type="line"/>
      <point x="1027" y="1427" type="line"/>
      <point x="1027" y="1500" type="line"/>
      <point x="238" y="1500" type="line"/>
    </contour>
  </outline>
</glyph>
<glyph name="d" format="2">
  <advance width="1227"/>
  <unicode hex="0064"/>
  <anchor x="436" y="0" name="bottom"/>
  <anchor x="776" y="0" name="cedilla"/>
  <anchor x="614" y="460" name="center"/>
  <anchor x="496" y="920" name="top"/>
  <anchor x="1253" y="920" name="topright"/>
  <outline>
    <contour>
      <point x="838" y="-20" type="curve" smooth="yes"/>
      <point x="982" y="-20"/>
      <point x="1116" y="56"/>
      <point x="1227" y="306" type="curve"/>
      <point x="1156" y="330" type="line"/>
      <point x="1074" y="158"/>
      <point x="1002" y="96"/>
      <point x="951" y="96" type="curve" smooth="yes"/>
      <point x="935" y="96"/>
      <point x="926" y="105"/>
      <point x="926" y="121" type="curve" smooth="yes"/>
      <point x="926" y="130"/>
      <point x="926.816" y="138.049"/>
      <point x="930" y="150" type="curve" smooth="yes"/>
      <point x="1290" y="1500" type="line"/>
      <point x="754" y="1500" type="line"/>
      <point x="754" y="1427" type="line"/>
      <point x="910" y="1427" type="line"/>
      <point x="701" y="648" type="line"/>
      <point x="710" y="525" type="line"/>
      <point x="631" y="363" type="line"/>
      <point x="600" y="220" type="line" smooth="yes"/>
      <point x="595" y="199"/>
      <point x="596" y="176"/>
      <point x="596" y="166" type="curve" smooth="yes"/>
      <point x="596" y="36"/>
      <point x="674" y="-20"/>
    </contour>
    <contour>
      <point x="314" y="-20" type="curve" smooth="yes"/>
      <point x="636" y="-20"/>
      <point x="744" y="587"/>
      <point x="744" y="703" type="curve" smooth="yes"/>
      <point x="744" y="887"/>
      <point x="639" y="940"/>
      <point x="547" y="940" type="curve" smooth="yes"/>
      <point x="291" y="940"/>
      <point x="40" y="611"/>
      <point x="40" y="305" type="curve" smooth="yes"/>
      <point x="40" y="110"/>
      <point x="115" y="-20"/>
    </contour>
    <contour>
      <point x="458" y="117" type="curve" smooth="yes"/>
      <point x="429" y="117"/>
      <point x="413" y="152"/>
      <point x="413" y="197" type="curve" smooth="yes"/>
      <point x="413" y="407"/>
      <point x="563" y="807"/>
      <point x="643" y="807" type="curve" smooth="yes"/>
      <point x="673" y="807"/>
      <point x="688" y="772"/>
      <point x="688" y="728" type="curve" smooth="yes"/>
      <point x="688" y="520"/>
      <point x="538" y="117"/>
    </contour>
  </outline>
</glyph>
<glyph name="g" format="2">
  <advance width="1270"/>
  <unicode hex="0067"/>
  <anchor x="325" y="-500" name="bottom"/>
  <anchor x="590" y="920" name="top"/>
  <outline>
    <contour>
      <point x="280" y="-520" type="curve" smooth="yes"/>
      <point x="589" y="-520"/>
      <point x="921" y="-376"/>
      <point x="921" y="-84" type="curve" smooth="yes"/>
      <point x="921" y="108"/>
      <point x="796" y="201"/>
      <point x="616" y="201" type="curve" smooth="yes"/>
      <point x="559" y="201"/>
      <point x="424" y="199"/>
      <point x="354" y="199" type="curve" smooth="yes"/>
      <point x="265" y="199"/>
      <point x="199" y="206"/>
      <point x="199" y="251" type="curve" smooth="yes"/>
      <point x="199" y="289"/>
      <point x="274" y="333"/>
      <point x="390" y="333" type="curve"/>
      <point x="394" y="373" type="line"/>
      <point x="194" y="373"/>
      <point x="-54" y="300"/>
      <point x="-54" y="123" type="curve" smooth="yes"/>
      <point x="-54" y="-31"/>
      <point x="113" y="-118"/>
      <point x="293" y="-118" type="curve" smooth="yes"/>
      <point x="337" y="-118"/>
      <point x="548" y="-118"/>
      <point x="610" y="-118" type="curve" smooth="yes"/>
      <point x="680" y="-118"/>
      <point x="729" y="-140"/>
      <point x="729" y="-228" type="curve" smooth="yes"/>
      <point x="729" y="-368"/>
      <point x="538" y="-441"/>
      <point x="372" y="-441" type="curve" smooth="yes"/>
      <point x="195" y="-441"/>
      <point x="119" y="-360"/>
      <point x="119" y="-254" type="curve" smooth="yes"/>
      <point x="119" y="-170"/>
      <point x="171" y="-120"/>
      <point x="205" y="-94" type="curve"/>
      <point x="168" y="-94" type="line" smooth="yes"/>
      <point x="-63" y="-94"/>
      <point x="-170" y="-199"/>
      <point x="-170" y="-301" type="curve" smooth="yes"/>
      <point x="-170" y="-461"/>
      <point x="33" y="-520"/>
    </contour>
    <contour>
      <point x="498" y="320" type="curve" smooth="yes"/>
      <point x="771" y="320"/>
      <point x="1001" y="466"/>
      <point x="1001" y="657" type="curve" smooth="yes"/>
      <point x="1001" y="827"/>
      <point x="830" y="939"/>
      <point x="598" y="939" type="curve" smooth="yes"/>
      <point x="325" y="939"/>
      <point x="95" y="784"/>
      <point x="95" y="593" type="curve" smooth="yes"/>
      <point x="95" y="423"/>
      <point x="266" y="320"/>
    </contour>
    <contour>
      <point x="488" y="390" type="curve" smooth="yes"/>
      <point x="470" y="390"/>
      <point x="460" y="415"/>
      <point x="460" y="443" type="curve" smooth="yes"/>
      <point x="460" y="541"/>
      <point x="550" y="869"/>
      <point x="608" y="869" type="curve" smooth="yes"/>
      <point x="626" y="869"/>
      <point x="636" y="845"/>
      <point x="636" y="817" type="curve" smooth="yes"/>
      <point x="636" y="719"/>
      <point x="546" y="390"/>
    </contour>
    <contour>
      <point x="1143" y="930" type="curve" smooth="yes"/>
      <point x="1013" y="930"/>
      <point x="919" y="857"/>
      <point x="849" y="709" type="curve"/>
      <point x="901" y="680" type="line"/>
      <point x="961" y="804"/>
      <point x="1045" y="859"/>
      <point x="1129" y="859" type="curve" smooth="yes"/>
      <point x="1145" y="859"/>
      <point x="1166" y="858"/>
      <point x="1181" y="855" type="curve"/>
      <point x="1181" y="857"/>
      <point x="1182" y="860"/>
      <point x="1182" y="862" type="curve"/>
      <point x="1111" y="855"/>
      <point x="1043" y="812"/>
      <point x="1043" y="728" type="curve" smooth="yes"/>
      <point x="1043" y="632"/>
      <point x="1108" y="569"/>
      <point x="1198" y="569" type="curve" smooth="yes"/>
      <point x="1293" y="569"/>
      <point x="1350" y="644"/>
      <point x="1350" y="739" type="curve" smooth="yes"/>
      <point x="1350" y="845"/>
      <point x="1261" y="930"/>
    </contour>
  </outline>
</glyph>
<glyph name="n" format="2">
  <advance width="1232"/>
  <unicode hex="006E"/>
  <anchor x="486" y="0" name="bottom"/>
  <anchor x="146" y="0" name="cedilla"/>
  <anchor x="686" y="920" name="top"/>
  <outline>
    <contour>
      <point x="821" y="-20" type="curve" smooth="yes"/>
      <point x="998" y="-20"/>
      <point x="1121" y="54"/>
      <point x="1232" y="306" type="curve"/>
      <point x="1161" y="330" type="line"/>
      <point x="1081" y="158"/>
      <point x="1008" y="96"/>
      <point x="953" y="96" type="curve" smooth="yes"/>
      <point x="940" y="96"/>
      <point x="933" y="103"/>
      <point x="933" y="126" type="curve" smooth="yes"/>
      <point x="933" y="136"/>
      <point x="937.034" y="155.702"/>
      <point x="940" y="166" type="curve" smooth="yes"/>
      <point x="1077" y="639" type="line" smooth="yes"/>
      <point x="1129.12" y="818.956"/>
      <point x="1035" y="939"/>
      <point x="862" y="939" type="curve" smooth="yes"/>
      <point x="605" y="939"/>
      <point x="463" y="571"/>
      <point x="387" y="266" type="curve"/>
      <point x="431" y="266" type="line"/>
      <point x="514" y="573"/>
      <point x="659" y="807"/>
      <point x="725" y="807" type="curve" smooth="yes"/>
      <point x="747" y="807"/>
      <point x="750.888" y="772.349"/>
      <point x="707" y="616" type="curve" smooth="yes"/>
      <point x="611" y="274" type="line" smooth="yes"/>
      <point x="601.429" y="241.185"/>
      <point x="592" y="195"/>
      <point x="592" y="164" type="curve" smooth="yes"/>
      <point x="592" y="58"/>
      <point x="657" y="-20"/>
    </contour>
    <contour>
      <point x="0" y="0" type="line"/>
      <point x="359" y="0" type="line"/>
      <point x="610" y="920" type="line"/>
      <point x="105" y="920" type="line"/>
      <point x="105" y="847" type="line"/>
      <point x="227" y="847" type="line"/>
    </contour>
  </outline>
</glyph>
<glyph name="v" format="2">
  <advance width="1153"/>
  <unicode hex="0076"/>
  <anchor x="486" y="0" name="bottom"/>
  <anchor x="746" y="920" name="top"/>
  <outline>
    <contour>
      <point x="496" y="-20" type="curve" smooth="yes"/>
      <point x="802" y="-20"/>
      <point x="1153" y="363"/>
      <point x="1153" y="668" type="curve" smooth="yes"/>
      <point x="1153" y="800"/>
      <point x="1073" y="938"/>
      <point x="917" y="938" type="curve" smooth="yes"/>
      <point x="793" y="938"/>
      <point x="705" y="845"/>
      <point x="705" y="724" type="curve" smooth="yes"/>
      <point x="705" y="594"/>
      <point x="787" y="510"/>
      <point x="917" y="510" type="curve" smooth="yes"/>
      <point x="1029.83" y="510"/>
      <point x="1115" y="589.859"/>
      <point x="1115" y="704" type="curve" smooth="yes"/>
      <point x="1115" y="824.062"/>
      <point x="1031.2" y="935.874"/>
      <point x="917" y="936" type="curve"/>
      <point x="917" y="863" type="line"/>
      <point x="987" y="863"/>
      <point x="1080" y="787"/>
      <point x="1080" y="668" type="curve" smooth="yes"/>
      <point x="1080" y="391"/>
      <point x="750" y="70"/>
      <point x="589" y="70" type="curve" smooth="yes"/>
      <point x="528" y="70"/>
      <point x="511.406" y="83.583"/>
      <point x="566" y="317" type="curve" smooth="yes"/>
      <point x="639" y="626" type="line" smooth="yes"/>
      <point x="649.011" y="668.095"/>
      <point x="657" y="709"/>
      <point x="657" y="738" type="curve" smooth="yes"/>
      <point x="657" y="844"/>
      <point x="562" y="939"/>
      <point x="398" y="939" type="curve" smooth="yes"/>
      <point x="186" y="939"/>
      <point x="106" y="814"/>
      <point x="20" y="624" type="curve"/>
      <point x="90" y="603" type="line"/>
      <point x="136" y="735"/>
      <point x="231" y="849"/>
      <point x="285" y="849" type="curve" smooth="yes"/>
      <point x="310" y="849"/>
      <point x="313" y="832"/>
      <point x="313" y="811" type="curve" smooth="yes"/>
      <point x="313" y="801"/>
      <point x="310" y="787"/>
      <point x="308" y="775" type="curve" smooth="yes"/>
      <point x="185" y="262" type="line" smooth="yes"/>
      <point x="136.627" y="60.247"/>
      <point x="303" y="-20"/>
    </contour>
  </outline>
</glyph>
<glyph name="exclamdown" format="2">
  <advance width="637"/>
  <unicode hex="00A1"/>
  <outline>
    <contour>
      <point x="36" y="-476" type="curve" smooth="yes"/>
      <point x="175" y="-476"/>
      <point x="318" y="-330"/>
      <point x="318" y="-158" type="curve" smooth="yes"/>
      <point x="318" y="94"/>
      <point x="178" y="124"/>
      <point x="239" y="424" type="curve"/>
      <point x="200" y="424" type="line"/>
      <point x="110" y="104"/>
      <point x="-178" y="-22"/>
      <point x="-178" y="-278" type="curve" smooth="yes"/>
      <point x="-178" y="-380"/>
      <point x="-94" y="-476"/>
    </contour>
    <contour>
      <point x="310" y="580" type="curve" smooth="yes"/>
      <point x="442" y="580"/>
      <point x="550" y="687"/>
      <point x="550" y="819" type="curve" smooth="yes"/>
      <point x="550" y="951"/>
      <point x="442" y="1060"/>
      <point x="310" y="1060" type="curve" smooth="yes"/>
      <point x="178" y="1060"/>
      <point x="70" y="951"/>
      <point x="70" y="819" type="curve" smooth="yes"/>
      <point x="70" y="687"/>
      <point x="178" y="580"/>
    </contour>
  </outline>
</glyph>
<glyph name="registered" format="2">
  <advance width="1739"/>
  <unicode hex="00AE"/>
  <anchor x="904.6" y="296" name="bottom"/>
  <anchor x="646.6" y="296" name="cedilla"/>
  <anchor x="1006.6" y="1196" name="top"/>
  <outline>
    <contour>
      <point x="840" y="-20" type="curve" smooth="yes"/>
      <point x="1306" y="-20"/>
      <point x="1750" y="425"/>
      <point x="1750" y="891" type="curve" smooth="yes"/>
      <point x="1750" y="1278"/>
      <point x="1467" y="1520"/>
      <point x="1080" y="1520" type="curve" smooth="yes"/>
      <point x="614" y="1520"/>
      <point x="170" y="1075"/>
      <point x="170" y="609" type="curve" smooth="yes"/>
      <point x="170" y="222"/>
      <point x="453" y="-20"/>
    </contour>
    <contour>
      <point x="415" y="296" type="line"/>
      <point x="913" y="296" type="line"/>
      <point x="913" y="339.8" type="line"/>
      <point x="415" y="339.8" type="line"/>
    </contour>
    <contour>
      <point x="522.4" y="296" type="line"/>
      <point x="781" y="296" type="line"/>
      <point x="991.6" y="1196" type="line"/>
      <point x="733" y="1196" type="line"/>
    </contour>
    <contour>
      <point x="1170.4" y="284" type="curve" smooth="yes"/>
      <point x="1237" y="284"/>
      <point x="1296.4" y="293.6"/>
      <point x="1339.6" y="309.8" type="curve"/>
      <point x="1325.8" y="353.6" type="line"/>
      <point x="1309.6" y="346.4"/>
      <point x="1298.2" y="339.2"/>
      <point x="1273" y="339.2" type="curve" smooth="yes"/>
      <point x="1149.4" y="339.2"/>
      <point x="1463.2" y="758"/>
      <point x="991.6" y="758" type="curve" smooth="yes"/>
      <point x="853" y="758" type="line"/>
      <point x="853" y="735.8" type="line"/>
      <point x="907" y="735.8" type="line" smooth="yes"/>
      <point x="1202.2" y="735.8"/>
      <point x="782.8" y="284"/>
    </contour>
    <contour>
      <point x="840" y="53" type="curve" smooth="yes"/>
      <point x="492" y="53"/>
      <point x="243" y="261"/>
      <point x="243" y="609" type="curve" smooth="yes"/>
      <point x="243" y="1035"/>
      <point x="654" y="1447"/>
      <point x="1080" y="1447" type="curve" smooth="yes"/>
      <point x="1426" y="1447"/>
      <point x="1677" y="1231"/>
      <point x="1677" y="891" type="curve" smooth="yes"/>
      <point x="1677" y="465"/>
      <point x="1266" y="53"/>
    </contour>
    <contour>
      <point x="853" y="754.4" type="line"/>
      <point x="979" y="754.4" type="line" smooth="yes"/>
      <point x="1220.2" y="754.4"/>
      <point x="1393.6" y="848.6"/>
      <point x="1393.6" y="1016" type="curve" smooth="yes"/>
      <point x="1393.6" y="1148.6"/>
      <point x="1256.2" y="1196"/>
      <point x="1099" y="1196" type="curve" smooth="yes"/>
      <point x="613" y="1196" type="line"/>
      <point x="613" y="1152.2" type="line"/>
      <point x="1015" y="1152.2" type="line" smooth="yes"/>
      <point x="1111" y="1152.2"/>
      <point x="1135" y="1122.2"/>
      <point x="1135" y="1063.4" type="curve" smooth="yes"/>
      <point x="1135" y="968.6"/>
      <point x="1094.2" y="780.2"/>
      <point x="919" y="780.2" type="curve" smooth="yes"/>
      <point x="853" y="780.2" type="line"/>
    </contour>
  </outline>
</glyph>
<glyph name="onequarter" format="2">
  <advance width="1281"/>
  <unicode hex="00BC"/>
  <outline>
    <contour>
      <point x="-34" y="-200" type="line"/>
      <point x="34" y="-200" type="line"/>
      <point x="1271" y="1300" type="line"/>
      <point x="1203" y="1300" type="line"/>
    </contour>
    <contour>
      <point x="350" y="1612" type="line"/>
      <point x="350" y="1568" type="line"/>
      <point x="482" y="1568" type="line"/>
      <point x="299" y="756" type="line"/>
      <point x="165" y="756" type="line"/>
      <point x="165" y="712" type="line"/>
      <point x="687" y="712" type="line"/>
      <point x="687" y="756" type="line"/>
      <point x="556" y="756" type="line"/>
      <point x="750" y="1612" type="line"/>
    </contour>
    <contour>
      <point x="1111" y="694" type="line"/>
      <point x="513" y="30" type="line"/>
      <point x="899" y="30" type="line"/>
      <point x="851" y="-162" type="line"/>
      <point x="738" y="-162" type="line"/>
      <point x="738" y="-206" type="line"/>
      <point x="1200" y="-206" type="line"/>
      <point x="1200" y="-162" type="line"/>
      <point x="1109" y="-162" type="line"/>
      <point x="1160" y="30" type="line"/>
      <point x="1290" y="30" type="line"/>
      <point x="1290" y="74" type="line"/>
      <point x="1172" y="74" type="line"/>
      <point x="1339" y="694" type="line"/>
    </contour>
    <contour>
      <point x="1024" y="525" type="line"/>
      <point x="910" y="74" type="line"/>
      <point x="616" y="74" type="line"/>
    </contour>
  </outline>
</glyph>
<glyph name="onehalf" format="2">
  <advance width="1339"/>
  <unicode hex="00BD"/>
  <outline>
    <contour>
      <point x="-34" y="-200" type="line"/>
      <point x="34" y="-200" type="line"/>
      <point x="1271" y="1300" type="line"/>
      <point x="1203" y="1300" type="line"/>
    </contour>
    <contour>
      <point x="165" y="712" type="line"/>
      <point x="687" y="712" type="line"/>
      <point x="687" y="755.8" type="line"/>
      <point x="165" y="755.8" type="line"/>
    </contour>
    <contour>
      <point x="634" y="-202" type="line"/>
      <point x="1322.8" y="-202" type="line"/>
      <point x="1403.2" y="140" type="line"/>
      <point x="1358.8" y="140" type="line"/>
      <point x="1337.8" y="50" type="line"/>
      <point x="893.8" y="50" type="line"/>
      <point x="1100.8" y="176.6" type="line" smooth="yes"/>
      <point x="1220.8" y="250.4"/>
      <point x="1457.8" y="362.6"/>
      <point x="1457.8" y="524.6" type="curve" smooth="yes"/>
      <point x="1457.8" y="650.6"/>
      <point x="1331.2" y="710"/>
      <point x="1186" y="710" type="curve" smooth="yes"/>
      <point x="976.6" y="710"/>
      <point x="797.2" y="576.8"/>
      <point x="797.2" y="436.4" type="curve" smooth="yes"/>
      <point x="797.2" y="344"/>
      <point x="862" y="292.4"/>
      <point x="934" y="292.4" type="curve" smooth="yes"/>
      <point x="1018" y="292.4"/>
      <point x="1079.2" y="357.2"/>
      <point x="1079.2" y="435.2" type="curve" smooth="yes"/>
      <point x="1079.2" y="513.2"/>
      <point x="1022.2" y="556.4"/>
      <point x="944.8" y="556.4" type="curve" smooth="yes"/>
      <point x="875.2" y="556.4"/>
      <point x="798.4" y="496.4"/>
      <point x="798.4" y="436.4" type="curve"/>
      <point x="839.2" y="436.4" type="line"/>
      <point x="839.2" y="538.4"/>
      <point x="941.2" y="629"/>
      <point x="1066" y="629" type="curve" smooth="yes"/>
      <point x="1151.2" y="629"/>
      <point x="1192" y="603.8"/>
      <point x="1192" y="524" type="curve" smooth="yes"/>
      <point x="1192" y="393.2"/>
      <point x="1112.8" y="230"/>
      <point x="968.2" y="141.2" type="curve" smooth="yes"/>
      <point x="673.6" y="-40" type="line"/>
    </contour>
    <contour>
      <point x="288.6" y="712" type="line"/>
      <point x="546" y="712" type="line"/>
      <point x="750" y="1612" type="line"/>
      <point x="350.4" y="1612" type="line"/>
      <point x="350.4" y="1568.2" type="line"/>
      <point x="481.8" y="1568.2" type="line"/>
    </contour>
  </outline>
</glyph>
<glyph name="questiondown" format="2">
  <advance width="1259"/>
  <unicode hex="00BF"/>
  <outline>
    <contour>
      <point x="528" y="-480" type="curve" smooth="yes"/>
      <point x="823" y="-480"/>
      <point x="1050" y="-276"/>
      <point x="1050" y="-92" type="curve" smooth="yes"/>
      <point x="1050" y="30"/>
      <point x="947" y="121"/>
      <point x="846" y="121" type="curve" smooth="yes"/>
      <point x="756" y="121"/>
      <point x="642" y="40"/>
      <point x="642" y="-80" type="curve" smooth="yes"/>
      <point x="642" y="-190"/>
      <point x="747" y="-279"/>
      <point x="846" y="-279" type="curve" smooth="yes"/>
      <point x="943" y="-279"/>
      <point x="1048" y="-192"/>
      <point x="1048" y="-92" type="curve"/>
      <point x="975" y="-92" type="line"/>
      <point x="975" y="-242"/>
      <point x="776" y="-409"/>
      <point x="598" y="-409" type="curve" smooth="yes"/>
      <point x="480" y="-409"/>
      <point x="442" y="-368"/>
      <point x="442" y="-240" type="curve" smooth="yes"/>
      <point x="442" y="-4"/>
      <point x="546" y="210"/>
      <point x="760" y="272" type="curve"/>
      <point x="808" y="482" type="line"/>
      <point x="734" y="482" type="line"/>
      <point x="701" y="328" type="line"/>
      <point x="419" y="310"/>
      <point x="20" y="200"/>
      <point x="20" y="-150" type="curve" smooth="yes"/>
      <point x="20" y="-390"/>
      <point x="306" y="-480"/>
    </contour>
    <contour>
      <point x="732" y="580" type="curve" smooth="yes"/>
      <point x="864" y="580"/>
      <point x="972" y="687"/>
      <point x="972" y="819" type="curve" smooth="yes"/>
      <point x="972" y="951"/>
      <point x="864" y="1060"/>
      <point x="732" y="1060" type="curve" smooth="yes"/>
      <point x="600" y="1060"/>
      <point x="491" y="951"/>
      <point x="491" y="819" type="curve" smooth="yes"/>
      <point x="491" y="687"/>
      <point x="600" y="580"/>
    </contour>
  </outline>
</glyph>
<glyph name="Eth" format="2">
  <advance width="1639"/>
  <unicode hex="00D0"/>
  <anchor x="613" y="0" name="bottom"/>
  <anchor x="613" y="0" name="cedilla"/>
  <anchor x="904" y="1500" name="top"/>
  <outline>
    <contour>
      <point x="115" y="694" type="line"/>
      <point x="900" y="694" type="line"/>
      <point x="900" y="766" type="line"/>
      <point x="115" y="766" type="line"/>
    </contour>
    <component base="D"/>
  </outline>
</glyph>
<glyph name="Dcroat" format="2">
  <advance width="1639"/>
  <unicode hex="0110"/>
  <outline>
    <contour>
      <point x="114.967" y="694" type="line"/>
      <point x="899.997" y="694" type="line"/>
      <point x="899.997" y="766" type="line"/>
      <point x="114.967" y="766" type="line"/>
    </contour>
    <component base="D"/>
  </outline>
</glyph>
<glyph name="dcroat" format="2">
  <advance width="1227"/>
  <unicode hex="0111"/>
  <outline>
    <contour>
      <point x="557.562" y="1104" type="line"/>
      <point x="1325.453" y="1104" type="line"/>
      <point x="1325.453" y="1176" type="line"/>
      <point x="557.562" y="1176" type="line"/>
    </contour>
    <component base="d"/>
  </outline>
</glyph>
<glyph name="Hbar" format="2">
  <advance width="1669"/>
  <unicode hex="0126"/>
  <outline>
    <contour>
      <point x="200.167" y="1076" type="line"/>
      <point x="1738" y="1076" type="line"/>
      <point x="1738" y="1145.999" type="line"/>
      <point x="200.167" y="1145.999" type="line"/>
    </contour>
    <component base="H"/>
  </outline>
</glyph>
<glyph name="acutecomb" format="2">
  <unicode hex="0301"/>
  <anchor x="647" y="1500" name="_top"/>
  <outline>
    <contour>
      <point x="601" y="1660" type="line"/>
      <point x="873" y="1718" type="line" smooth="yes"/>
      <point x="1031" y="1752"/>
      <point x="1089" y="1905"/>
      <point x="1023" y="2001" type="curve" smooth="yes"/>
      <point x="969" y="2079"/>
      <point x="804" y="2099"/>
      <point x="718" y="1956" type="curve" smooth="yes"/>
      <point x="569" y="1708" type="line"/>
    </contour>
  </outline>
</glyph>
<glyph name="circumflexcomb" format="2">
  <unicode hex="0302"/>
  <anchor x="743" y="1500" name="_top"/>
  <outline>
    <contour>
      <point x="445" y="1680" type="line"/>
      <point x="830" y="1849" type="line"/>
      <point x="1141" y="1685" type="line"/>
      <point x="1176" y="1720" type="line"/>
      <point x="940" y="2039" type="line"/>
      <point x="731" y="2039" type="line"/>
      <point x="406" y="1720" type="line"/>
    </contour>
  </outline>
</glyph>
<glyph name="brevecomb" format="2">
  <unicode hex="0306"/>
  <anchor x="765" y="1500" name="_top"/>
  <outline>
    <contour>
      <point x="808" y="1682" type="curve" smooth="yes"/>
      <point x="1048" y="1682"/>
      <point x="1108" y="1937"/>
      <point x="1128" y="2059" type="curve"/>
      <point x="1055" y="2059" type="line"/>
      <point x="1023" y="1961"/>
      <point x="935" y="1951"/>
      <point x="828" y="1951" type="curve" smooth="yes"/>
      <point x="721" y="1951"/>
      <point x="671" y="1985"/>
      <point x="681" y="2059" type="curve"/>
      <point x="608" y="2059" type="line"/>
      <point x="588" y="1937"/>
      <point x="587" y="1682"/>
    </contour>
  </outline>
</glyph>
<glyph name="breveinvertedcomb" format="2">
  <unicode hex="0311"/>
  <anchor x="777" y="1500" name="_top"/>
  <outline>
    <contour>
      <point x="527" y="1699" type="curve"/>
      <point x="600" y="1699" type="line"/>
      <point x="632" y="1797"/>
      <point x="720" y="1807"/>
      <point x="827" y="1807" type="curve" smooth="yes"/>
      <point x="934" y="1807"/>
      <point x="984" y="1773"/>
      <point x="974" y="1699" type="curve"/>
      <point x="1047" y="1699" type="line"/>
      <point x="1067" y="1821"/>
      <point x="1068" y="2076"/>
      <point x="847" y="2076" type="curve" smooth="yes"/>
      <point x="607" y="2076"/>
      <point x="547" y="1821"/>
    </contour>
  </outline>
</glyph>
<glyph name="cedillacomb" format="2">
  <unicode hex="0327"/>
  <anchor x="375" y="0" name="_bottom"/>
  <outline>
    <contour>
      <point x="56" y="-509" type="line"/>
      <point x="318" y="-509"/>
      <point x="562" y="-451"/>
      <point x="562" y="-291" type="curve" smooth="yes"/>
      <point x="562" y="-187"/>
      <point x="434" y="-156"/>
      <point x="295" y="-149" type="curve"/>
      <point x="457" y="12" type="line"/>
      <point x="343" y="12" type="line"/>
      <point x="103" y="-228" type="line"/>
      <point x="193" y="-228"/>
      <point x="252" y="-264"/>
      <point x="252" y="-330" type="curve" smooth="yes"/>
      <point x="252" y="-426"/>
      <point x="163" y="-437"/>
      <point x="56" y="-437" type="curve"/>
    </contour>
  </outline>
</glyph>
<glyph name="daggerdbl" format="2">
  <advance width="1288"/>
  <unicode hex="2021"/>
  <outline>
    <contour>
      <point x="404" y="-520" type="curve" smooth="yes"/>
      <point x="522" y="-520"/>
      <point x="644" y="-436"/>
      <point x="671" y="-318" type="curve" smooth="yes"/>
      <point x="674" y="-306"/>
      <point x="676" y="-296"/>
      <point x="677" y="-282" type="curve" smooth="yes"/>
      <point x="689" y="-172"/>
      <point x="559" y="-124"/>
      <point x="562" y="-10" type="curve"/>
      <point x="666" y="-37"/>
      <point x="682" y="-174"/>
      <point x="787" y="-187" type="curve" smooth="yes"/>
      <point x="801" y="-189"/>
      <point x="810" y="-189"/>
      <point x="822" y="-189" type="curve" smooth="yes"/>
      <point x="940" y="-189"/>
      <point x="1048" y="-87"/>
      <point x="1075" y="31" type="curve" smooth="yes"/>
      <point x="1102" y="149"/>
      <point x="1042" y="251"/>
      <point x="924" y="251" type="curve" smooth="yes"/>
      <point x="912" y="251"/>
      <point x="901" y="251"/>
      <point x="887" y="249" type="curve" smooth="yes"/>
      <point x="776" y="235"/>
      <point x="695" y="97"/>
      <point x="577" y="71" type="curve"/>
      <point x="642" y="306"/>
      <point x="758" y="406"/>
      <point x="845" y="500" type="curve"/>
      <point x="801" y="594"/>
      <point x="733" y="694"/>
      <point x="776" y="929" type="curve"/>
      <point x="881" y="902"/>
      <point x="897" y="765"/>
      <point x="1003" y="751" type="curve" smooth="yes"/>
      <point x="1017" y="749"/>
      <point x="1027" y="749"/>
      <point x="1039" y="749" type="curve" smooth="yes"/>
      <point x="1157" y="749"/>
      <point x="1265" y="851"/>
      <point x="1292" y="969" type="curve" smooth="yes"/>
      <point x="1319" y="1087"/>
      <point x="1259" y="1189"/>
      <point x="1141" y="1189" type="curve" smooth="yes"/>
      <point x="1129" y="1189"/>
      <point x="1118" y="1189"/>
      <point x="1104" y="1187" type="curve" smooth="yes"/>
      <point x="993" y="1173"/>
      <point x="913" y="1037"/>
      <point x="796" y="1010" type="curve"/>
      <point x="846" y="1124"/>
      <point x="999" y="1172"/>
      <point x="1038" y="1282" type="curve" smooth="yes"/>
      <point x="1043" y="1296"/>
      <point x="1045" y="1306"/>
      <point x="1048" y="1318" type="curve" smooth="yes"/>
      <point x="1075" y="1436"/>
      <point x="993" y="1520"/>
      <point x="875" y="1520" type="curve" smooth="yes"/>
      <point x="757" y="1520"/>
      <point x="635" y="1436"/>
      <point x="608" y="1318" type="curve" smooth="yes"/>
      <point x="605" y="1306"/>
      <point x="603" y="1296"/>
      <point x="602" y="1282" type="curve" smooth="yes"/>
      <point x="590" y="1172"/>
      <point x="720" y="1124"/>
      <point x="717" y="1010" type="curve"/>
      <point x="613" y="1037"/>
      <point x="597" y="1174"/>
      <point x="492" y="1187" type="curve" smooth="yes"/>
      <point x="478" y="1189"/>
      <point x="469" y="1189"/>
      <point x="457" y="1189" type="curve" smooth="yes"/>
      <point x="339" y="1189"/>
      <point x="231" y="1087"/>
      <point x="204" y="969" type="curve" smooth="yes"/>
      <point x="177" y="851"/>
      <point x="237" y="749"/>
      <point x="355" y="749" type="curve" smooth="yes"/>
      <point x="367" y="749"/>
      <point x="377" y="749"/>
      <point x="391" y="751" type="curve" smooth="yes"/>
      <point x="503" y="765"/>
      <point x="583" y="904"/>
      <point x="702" y="929" type="curve"/>
      <point x="637" y="694"/>
      <point x="520" y="594"/>
      <point x="433" y="500" type="curve"/>
      <point x="477" y="406"/>
      <point x="546" y="306"/>
      <point x="503" y="71" type="curve"/>
      <point x="397" y="97"/>
      <point x="381" y="235"/>
      <point x="275" y="249" type="curve" smooth="yes"/>
      <point x="261" y="251"/>
      <point x="252" y="251"/>
      <point x="240" y="251" type="curve" smooth="yes"/>
      <point x="122" y="251"/>
      <point x="14" y="149"/>
      <point x="-13" y="31" type="curve" smooth="yes"/>
      <point x="-40" y="-87"/>
      <point x="20" y="-189"/>
      <point x="138" y="-189" type="curve" smooth="yes"/>
      <point x="150" y="-189"/>
      <point x="161" y="-189"/>
      <point x="175" y="-187" type="curve" smooth="yes"/>
      <point x="286" y="-173"/>
      <point x="366" y="-37"/>
      <point x="483" y="-10" type="curve"/>
      <point x="433" y="-124"/>
      <point x="280" y="-172"/>
      <point x="241" y="-282" type="curve" smooth="yes"/>
      <point x="236" y="-296"/>
      <point x="234" y="-306"/>
      <point x="231" y="-318" type="curve" smooth="yes"/>
      <point x="204" y="-436"/>
      <point x="286" y="-520"/>
    </contour>
  </outline>
</glyph>
<glyph name="partialdiff" format="2">
  <advance width="1319"/>
  <unicode hex="2202"/>
  <outline>
    <contour>
      <point x="506" y="-20" type="curve" smooth="yes"/>
      <point x="888" y="-20"/>
      <point x="1163" y="280"/>
      <point x="1272" y="750" type="curve" smooth="yes"/>
      <point x="1389" y="1256"/>
      <point x="1045" y="1520"/>
      <point x="720" y="1520" type="curve"/>
      <point x="684" y="1453" type="line"/>
      <point x="942" y="1453"/>
      <point x="878" y="1084"/>
      <point x="836" y="900" type="curve"/>
      <point x="769" y="561" type="line"/>
      <point x="707" y="293"/>
      <point x="635" y="53"/>
      <point x="517" y="53" type="curve" smooth="yes"/>
      <point x="419" y="53"/>
      <point x="462" y="271"/>
      <point x="515" y="500" type="curve" smooth="yes"/>
      <point x="577" y="768"/>
      <point x="628" y="889"/>
      <point x="726" y="889" type="curve" smooth="yes"/>
      <point x="812" y="889"/>
      <point x="820" y="782"/>
      <point x="769" y="561" type="curve"/>
      <point x="831" y="561" type="line"/>
      <point x="885" y="795"/>
      <point x="915" y="980"/>
      <point x="653" y="980" type="curve" smooth="yes"/>
      <point x="451" y="980"/>
      <point x="131" y="840"/>
      <point x="53" y="500" type="curve" smooth="yes"/>
      <point x="-16" y="200"/>
      <point x="204" y="-20"/>
    </contour>
    <contour>
      <point x="463" y="1086" type="curve" smooth="yes"/>
      <point x="548" y="1086"/>
      <point x="652" y="1150"/>
      <point x="677" y="1260" type="curve" smooth="yes"/>
      <point x="700" y="1358"/>
      <point x="628" y="1426"/>
      <point x="541" y="1426" type="curve" smooth="yes"/>
      <point x="458" y="1426"/>
      <point x="358" y="1354"/>
      <point x="335" y="1256" type="curve"/>
      <point x="425" y="1256" type="line"/>
      <point x="457" y="1393"/>
      <point x="590" y="1453"/>
      <point x="684" y="1453" type="curve"/>
      <point x="720" y="1520" type="line"/>
      <point x="547" y="1521"/>
      <point x="369" y="1410"/>
      <point x="333" y="1256" type="curve" smooth="yes"/>
      <point x="309" y="1154"/>
      <point x="372" y="1086"/>
    </contour>
  </outline>
</glyph>
<glyph name="h.sc" format="2">
  <advance width="1570"/>
  <anchor x="685" y="0" name="bottom"/>
  <anchor x="327" y="0" name="cedilla"/>
  <anchor x="920" y="1020" name="top"/>
  <outline>
    <contour>
      <point x="845" y="0" type="line"/>
      <point x="1276" y="0" type="line"/>
      <point x="1511" y="1020" type="line"/>
      <point x="1080" y="1020" type="line"/>
    </contour>
    <contour>
      <point x="-35" y="0" type="line"/>
      <point x="625" y="0" type="line"/>
      <point x="642" y="73" type="line"/>
      <point x="-18" y="73" type="line"/>
    </contour>
    <contour>
      <point x="96" y="0" type="line"/>
      <point x="526" y="0" type="line"/>
      <point x="761" y="1020" type="line"/>
      <point x="331" y="1020" type="line"/>
    </contour>
    <contour>
      <point x="745" y="0" type="line"/>
      <point x="1405" y="0" type="line"/>
      <point x="1422" y="73" type="line"/>
      <point x="762" y="73" type="line"/>
    </contour>
    <contour>
      <point x="499" y="493" type="line"/>
      <point x="999" y="493" type="line"/>
      <point x="1016" y="567" type="line"/>
      <point x="516" y="567" type="line"/>
    </contour>
    <contour>
      <point x="184" y="947" type="line"/>
      <point x="844" y="947" type="line"/>
      <point x="860" y="1020" type="line"/>
      <point x="200" y="1020" type="line"/>
    </contour>
    <contour>
      <point x="964" y="947" type="line"/>
      <point x="1624" y="947" type="line"/>
      <point x="1640" y="1020" type="line"/>
      <point x="980" y="1020" type="line"/>
    </contour>
  </outline>
</glyph>
<glyph name="k.sc" format="2">
  <advance width="1485"/>
  <anchor x="667" y="0" name="bottom"/>
  <anchor x="317" y="0" name="cedilla"/>
  <anchor x="970" y="1020" name="top"/>
  <outline>
    <contour>
      <point x="-35" y="0" type="line"/>
      <point x="595" y="0" type="line"/>
      <point x="612" y="73" type="line"/>
      <point x="543" y="73" type="line"/>
      <point x="618" y="400" type="line"/>
      <point x="639" y="416" type="line"/>
      <point x="754" y="73" type="line"/>
      <point x="692" y="73" type="line"/>
      <point x="675" y="0" type="line"/>
      <point x="1345" y="0" type="line"/>
      <point x="1362" y="73" type="line"/>
      <point x="1233" y="73" type="line"/>
      <point x="1011" y="701" type="line"/>
      <point x="1332" y="947" type="line"/>
      <point x="1465" y="947" type="line"/>
      <point x="1481" y="1020" type="line"/>
      <point x="1100" y="1020" type="line"/>
      <point x="1084" y="947" type="line"/>
      <point x="1222" y="947" type="line"/>
      <point x="642" y="502" type="line"/>
      <point x="744" y="947" type="line"/>
      <point x="894" y="947" type="line"/>
      <point x="910" y="1020" type="line"/>
      <point x="200" y="1020" type="line"/>
      <point x="184" y="947" type="line"/>
      <point x="314" y="947" type="line"/>
      <point x="113" y="73" type="line"/>
      <point x="-18" y="73" type="line"/>
    </contour>
  </outline>
</glyph>
<glyph name="nine.osf" format="2">
  <advance width="1318"/>
  <outline>
    <contour>
      <point x="9" y="-519.961" type="line"/>
      <point x="695" y="-519.961"/>
      <point x="1239" y="25.168"/>
      <point x="1239" y="504.881" type="curve" smooth="yes"/>
      <point x="1239" y="808.257"/>
      <point x="1033" y="940.036"/>
      <point x="771" y="940.036" type="curve" smooth="yes"/>
      <point x="429" y="940.036"/>
      <point x="60" y="712.504"/>
      <point x="60" y="352.245" type="curve" smooth="yes"/>
      <point x="60" y="87.739"/>
      <point x="287" y="-17.495"/>
      <point x="489" y="-17.495" type="curve" smooth="yes"/>
      <point x="811" y="-17.495"/>
      <point x="911" y="547.543"/>
      <point x="911" y="769.387" type="curve"/>
      <point x="833" y="769.387" type="line"/>
      <point x="833" y="559.868"/>
      <point x="706" y="78.259"/>
      <point x="560" y="78.259" type="curve" smooth="yes"/>
      <point x="512" y="78.259"/>
      <point x="499" y="112.388"/>
      <point x="499" y="213.83" type="curve" smooth="yes"/>
      <point x="499" y="411.024"/>
      <point x="616" y="870.828"/>
      <point x="757" y="870.828" type="curve" smooth="yes"/>
      <point x="809" y="870.828"/>
      <point x="833" y="852.815"/>
      <point x="833" y="769.387" type="curve"/>
      <point x="829" y="466.011" type="line"/>
      <point x="829" y="215.726"/>
      <point x="477" y="-456.442"/>
      <point x="9" y="-456.442" type="curve"/>
    </contour>
  </outline>
</glyph>
<glyph name="three.osf" format="2">
  <advance width="1240"/>
  <outline>
    <contour>
      <point x="272" y="-519.96" type="curve" smooth="yes"/>
      <point x="604" y="-519.96"/>
      <point x="992" y="-368.283"/>
      <point x="992" y="-55.449" type="curve" smooth="yes"/>
      <point x="992" y="154.054"/>
      <point x="758" y="276.344"/>
      <point x="326" y="276.344" type="curve"/>
      <point x="326" y="233.685" type="line"/>
      <point x="544" y="233.685"/>
      <point x="570" y="141.73"/>
      <point x="570" y="1.429" type="curve" smooth="yes"/>
      <point x="570" y="-205.23"/>
      <point x="490" y="-454.549"/>
      <point x="232" y="-454.549" type="curve" smooth="yes"/>
      <point x="56" y="-454.549"/>
      <point x="-95" y="-313.3"/>
      <point x="-95" y="-152.143" type="curve"/>
      <point x="-168" y="-152.143" type="line"/>
      <point x="-168" y="-246.941"/>
      <point x="-64" y="-330.364"/>
      <point x="44" y="-330.364" type="curve" smooth="yes"/>
      <point x="153" y="-330.364"/>
      <point x="257" y="-244.097"/>
      <point x="257" y="-136.028" type="curve" smooth="yes"/>
      <point x="257" y="-20.374"/>
      <point x="161" y="63.996"/>
      <point x="50" y="63.996" type="curve" smooth="yes"/>
      <point x="-70" y="63.996"/>
      <point x="-170" y="-27.01"/>
      <point x="-170" y="-152.143" type="curve" smooth="yes"/>
      <point x="-170" y="-318.04"/>
      <point x="-12" y="-519.96"/>
    </contour>
    <contour>
      <point x="326" y="259.28" type="line"/>
      <point x="788" y="259.28"/>
      <point x="1112" y="458.356"/>
      <point x="1112" y="647.952" type="curve" smooth="yes"/>
      <point x="1112" y="857.455"/>
      <point x="805" y="938.034"/>
      <point x="582" y="938.034" type="curve" smooth="yes"/>
      <point x="378" y="938.034"/>
      <point x="109" y="830.912"/>
      <point x="109" y="636.576" type="curve" smooth="yes"/>
      <point x="109" y="511.443"/>
      <point x="214" y="424.228"/>
      <point x="325" y="424.228" type="curve" smooth="yes"/>
      <point x="425" y="424.228"/>
      <point x="538" y="501.015"/>
      <point x="538" y="624.252" type="curve" smooth="yes"/>
      <point x="538" y="738.01"/>
      <point x="434" y="819.536"/>
      <point x="325" y="819.536" type="curve" smooth="yes"/>
      <point x="224" y="819.536"/>
      <point x="111" y="740.854"/>
      <point x="111" y="636.576" type="curve"/>
      <point x="184" y="636.576" type="line"/>
      <point x="184" y="797.733"/>
      <point x="389" y="871.675"/>
      <point x="522" y="871.675" type="curve" smooth="yes"/>
      <point x="660" y="871.675"/>
      <point x="690" y="816.692"/>
      <point x="690" y="695.351" type="curve" smooth="yes"/>
      <point x="690" y="574.009"/>
      <point x="614" y="301.939"/>
      <point x="326" y="301.939" type="curve"/>
    </contour>
  </outline>
</glyph>
<glyph name="three.tosf" format="2">
  <advance width="1400"/>
  <outline>
    <contour>
      <point x="392" y="-519.96" type="curve" smooth="yes"/>
      <point x="724" y="-519.96"/>
      <point x="1112" y="-368.283"/>
      <point x="1112" y="-55.449" type="curve" smooth="yes"/>
      <point x="1112" y="154.054"/>
      <point x="878" y="276.344"/>
      <point x="446" y="276.344" type="curve"/>
      <point x="446" y="233.685" type="line"/>
      <point x="664" y="233.685"/>
      <point x="690" y="141.73"/>
      <point x="690" y="1.429" type="curve" smooth="yes"/>
      <point x="690" y="-205.23"/>
      <point x="610" y="-454.549"/>
      <point x="352" y="-454.549" type="curve" smooth="yes"/>
      <point x="176" y="-454.549"/>
      <point x="25" y="-313.3"/>
      <point x="25" y="-152.143" type="curve"/>
      <point x="-48" y="-152.143" type="line"/>
      <point x="-48" y="-246.941"/>
      <point x="56" y="-330.364"/>
      <point x="164" y="-330.364" type="curve" smooth="yes"/>
      <point x="273" y="-330.364"/>
      <point x="377" y="-244.097"/>
      <point x="377" y="-136.028" type="curve" smooth="yes"/>
      <point x="377" y="-20.374"/>
      <point x="281" y="63.996"/>
      <point x="170" y="63.996" type="curve" smooth="yes"/>
      <point x="50" y="63.996"/>
      <point x="-50" y="-27.01"/>
      <point x="-50" y="-152.143" type="curve" smooth="yes"/>
      <point x="-50" y="-318.04"/>
      <point x="108" y="-519.96"/>
    </contour>
    <contour>
      <point x="446" y="259.28" type="line"/>
      <point x="908" y="259.28"/>
      <point x="1232" y="458.356"/>
      <point x="1232" y="647.952" type="curve" smooth="yes"/>
      <point x="1232" y="857.455"/>
      <point x="925" y="938.034"/>
      <point x="702" y="938.034" type="curve" smooth="yes"/>
      <point x="498" y="938.034"/>
      <point x="229" y="830.912"/>
      <point x="229" y="636.576" type="curve" smooth="yes"/>
      <point x="229" y="511.443"/>
      <point x="334" y="424.228"/>
      <point x="445" y="424.228" type="curve" smooth="yes"/>
      <point x="545" y="424.228"/>
      <point x="658" y="501.015"/>
      <point x="658" y="624.252" type="curve" smooth="yes"/>
      <point x="658" y="738.01"/>
      <point x="554" y="819.536"/>
      <point x="445" y="819.536" type="curve" smooth="yes"/>
      <point x="344" y="819.536"/>
      <point x="231" y="740.854"/>
      <point x="231" y="636.576" type="curve"/>
      <point x="304" y="636.576" type="line"/>
      <point x="304" y="797.733"/>
      <point x="509" y="871.675"/>
      <point x="642" y="871.675" type="curve" smooth="yes"/>
      <point x="780" y="871.675"/>
      <point x="810" y="816.692"/>
      <point x="810" y="695.351" type="curve" smooth="yes"/>
      <point x="810" y="574.009"/>
      <point x="734" y="301.939"/>
      <point x="446" y="301.939" type="curve"/>
    </contour>
  </outline>
</glyph>
